<?xml version="1.0" encoding="UTF-8" standalone="no"?>
<svg xmlns="http://www.w3.org/2000/svg" width="300" height="400" viewBox="0 0 300 400" fill="none">
  <!-- Hintergrund -->
  <rect width="300" height="400" rx="12" fill="#F2F4F8"/>
  
  <!-- Silhouette -->
  <path fill-rule="evenodd" clip-rule="evenodd" d="M150 80C128.954 80 112 96.9543 112 118C112 139.046 128.954 156 150 156C171.046 156 188 139.046 188 118C188 96.9543 171.046 80 150 80ZM150 160C121.909 160 100 180.909 100 210V260C100 293.137 126.863 320 160 320H140C173.137 320 200 293.137 200 260V210C200 180.909 178.091 160 150 160Z" fill="#9CA3AF" />
  
  <!-- Grafische Elemente -->
  <circle cx="250" cy="60" r="30" fill="#8B5CF6" fill-opacity="0.2"/>
  <circle cx="50" cy="350" r="25" fill="#6D28D9" fill-opacity="0.15"/>
  <circle cx="270" cy="300" r="15" fill="#8B5CF6" fill-opacity="0.25"/>
  <circle cx="80" cy="70" r="20" fill="#6D28D9" fill-opacity="0.1"/>

  <!-- Dezente Linien -->
  <path d="M50 200H250" stroke="#E5E7EB" stroke-width="2"/>
  <path d="M120 50V350" stroke="#E5E7EB" stroke-width="1"/>
  <path d="M180 50V350" stroke="#E5E7EB" stroke-width="1"/>
  
  <!-- Texthinweis -->
  <text x="150" y="370" font-family="Inter, sans-serif" font-size="14" text-anchor="middle" fill="#6B7280">Portrait-Platzhalter</text>
</svg>
