<svg width="700" height="500" viewBox="0 0 700 500" fill="none" xmlns="http://www.w3.org/2000/svg">
  <!-- Background gradient - full size without browser chrome -->
  <rect width="700" height="500" rx="12" fill="url(#paint0_radial)" />
  
  <!-- Website header -->
  <rect x="0" y="0" width="700" height="80" rx="12" fill="#F5F3FF" />
  
  <!-- Logo -->
  <rect x="40" y="30" width="30" height="30" rx="6" fill="url(#paint1_linear)" />
  <rect x="80" y="30" width="120" height="10" rx="2" fill="#6D28D9" />
  <rect x="80" y="50" width="80" height="8" rx="2" fill="#A78BFA" />
  
  <!-- Navigation -->
  <rect x="350" y="30" width="50" height="10" rx="2" fill="#4B5563" />
  <rect x="420" y="30" width="50" height="10" rx="2" fill="#4B5563" />
  <rect x="490" y="30" width="50" height="10" rx="2" fill="#4B5563" />
  <rect x="560" y="30" width="50" height="10" rx="2" fill="#6D28D9" />
  
  <!-- Hero section -->
  <rect x="0" y="80" width="700" height="200" rx="0" fill="url(#paint2_linear)" />
  
  <!-- Hero content -->
  <rect x="40" y="110" width="320" height="36" rx="4" fill="#1F2937" />
  <rect x="40" y="156" width="260" height="36" rx="4" fill="#374151" />
  <rect x="40" y="202" width="240" height="16" rx="4" fill="#6B7280" />
  <rect x="40" y="228" width="220" height="16" rx="4" fill="#9CA3AF" />
  
  <!-- CTA Buttons -->
  <rect x="40" y="270" width="140" height="40" rx="20" fill="url(#paint3_linear)" />
  <rect x="200" y="270" width="140" height="40" rx="20" fill="url(#paint4_linear)" />
  
  <!-- Hero image -->
  <rect x="400" y="110" width="240" height="140" rx="8" fill="url(#paint5_linear)" />
  <ellipse cx="470" cy="180" rx="40" ry="40" fill="url(#paint6_radial)" opacity="0.6" />
  <ellipse cx="570" cy="150" rx="30" ry="30" fill="url(#paint7_radial)" opacity="0.5" />
  
  <!-- Features section -->
  <rect x="0" y="280" width="700" height="220" rx="0" fill="#FFFFFF" />
  
  <!-- Section heading -->
  <rect x="40" y="310" width="200" height="24" rx="4" fill="#1F2937" />
  <rect x="40" y="344" width="520" height="16" rx="4" fill="#6B7280" />
  
  <!-- Feature cards - without borders -->
  <rect x="40" y="380" width="200" height="60" rx="8" fill="#F9FAFB" />
  <rect x="50" y="390" width="40" height="40" rx="6" fill="url(#paint8_linear)" opacity="0.8" />
  <rect x="100" y="395" width="120" height="8" rx="2" fill="#1F2937" />
  <rect x="100" y="410" width="100" height="8" rx="2" fill="#9CA3AF" />
  
  <rect x="250" y="380" width="200" height="60" rx="8" fill="#F9FAFB" />
  <rect x="260" y="390" width="40" height="40" rx="6" fill="url(#paint9_linear)" opacity="0.8" />
  <rect x="310" y="395" width="120" height="8" rx="2" fill="#1F2937" />
  <rect x="310" y="410" width="100" height="8" rx="2" fill="#9CA3AF" />
  
  <rect x="460" y="380" width="200" height="60" rx="8" fill="#F9FAFB" />
  <rect x="470" y="390" width="40" height="40" rx="6" fill="url(#paint10_linear)" opacity="0.8" />
  <rect x="520" y="395" width="120" height="8" rx="2" fill="#1F2937" />
  <rect x="520" y="410" width="100" height="8" rx="2" fill="#9CA3AF" />
  
  <!-- Decorative elements -->
  <circle cx="30" cy="150" r="8" fill="url(#paint11_radial)" opacity="0.8"/>
  <rect x="620" y="160" width="30" height="30" rx="8" fill="url(#paint12_radial)" opacity="0.7" transform="rotate(-15 620 160)"/>
  <ellipse cx="70" cy="330" rx="10" ry="16" transform="rotate(45 70 330)" fill="url(#paint13_radial)" opacity="0.6"/>
  <ellipse cx="650" cy="290" rx="16" ry="8" transform="rotate(-30 650 290)" fill="url(#paint14_radial)" opacity="0.5"/>
  
  <!-- Gradients -->
  <defs>
    <radialGradient id="paint0_radial" cx="0" cy="0" r="1" gradientUnits="userSpaceOnUse" gradientTransform="translate(350 250) rotate(90) scale(250 350)">
      <stop stop-color="#F9FAFB" />
      <stop offset="1" stop-color="#F3F4F6" />
    </radialGradient>
    
    <linearGradient id="paint1_linear" x1="40" y1="30" x2="70" y2="60" gradientUnits="userSpaceOnUse">
      <stop stop-color="#8B5CF6" />
      <stop offset="1" stop-color="#6D28D9" />
    </linearGradient>
    
    <linearGradient id="paint2_linear" x1="0" y1="80" x2="700" y2="280" gradientUnits="userSpaceOnUse">
      <stop stop-color="#F5F3FF" />
      <stop offset="1" stop-color="#EDE9FE" />
    </linearGradient>
    
    <linearGradient id="paint3_linear" x1="40" y1="270" x2="180" y2="310" gradientUnits="userSpaceOnUse">
      <stop stop-color="#8B5CF6" />
      <stop offset="1" stop-color="#6D28D9" />
    </linearGradient>
    
    <linearGradient id="paint4_linear" x1="200" y1="270" x2="340" y2="310" gradientUnits="userSpaceOnUse">
      <stop stop-color="#FFFFFF" />
      <stop offset="1" stop-color="#F9FAFB" />
    </linearGradient>
    
    <linearGradient id="paint5_linear" x1="400" y1="110" x2="640" y2="250" gradientUnits="userSpaceOnUse">
      <stop stop-color="#EEF2FF" />
      <stop offset="1" stop-color="#E0E7FF" />
    </linearGradient>
    
    <radialGradient id="paint6_radial" cx="0" cy="0" r="1" gradientUnits="userSpaceOnUse" gradientTransform="translate(470 180) rotate(90) scale(40)">
      <stop stop-color="#8B5CF6" stop-opacity="0.3" />
      <stop offset="1" stop-color="#8B5CF6" stop-opacity="0" />
    </radialGradient>
    
    <radialGradient id="paint7_radial" cx="0" cy="0" r="1" gradientUnits="userSpaceOnUse" gradientTransform="translate(570 150) rotate(90) scale(30)">
      <stop stop-color="#6D28D9" stop-opacity="0.2" />
      <stop offset="1" stop-color="#6D28D9" stop-opacity="0" />
    </radialGradient>
    
    <linearGradient id="paint8_linear" x1="50" y1="390" x2="90" y2="430" gradientUnits="userSpaceOnUse">
      <stop stop-color="#8B5CF6" />
      <stop offset="1" stop-color="#6D28D9" />
    </linearGradient>
    
    <linearGradient id="paint9_linear" x1="260" y1="390" x2="300" y2="430" gradientUnits="userSpaceOnUse">
      <stop stop-color="#8B5CF6" />
      <stop offset="1" stop-color="#6D28D9" />
    </linearGradient>
    
    <linearGradient id="paint10_linear" x1="470" y1="390" x2="510" y2="430" gradientUnits="userSpaceOnUse">
      <stop stop-color="#8B5CF6" />
      <stop offset="1" stop-color="#6D28D9" />
    </linearGradient>
    
    <radialGradient id="paint11_radial" cx="0" cy="0" r="1" gradientUnits="userSpaceOnUse" gradientTransform="translate(30 150) rotate(90) scale(8)">
      <stop stop-color="#8B5CF6" />
      <stop offset="1" stop-color="#6D28D9" />
    </radialGradient>
    
    <radialGradient id="paint12_radial" cx="0" cy="0" r="1" gradientUnits="userSpaceOnUse" gradientTransform="translate(635 175) rotate(90) scale(15)">
      <stop stop-color="#8B5CF6" />
      <stop offset="1" stop-color="#6D28D9" />
    </radialGradient>
    
    <radialGradient id="paint13_radial" cx="0" cy="0" r="1" gradientUnits="userSpaceOnUse" gradientTransform="translate(70 330) rotate(90) scale(16 10)">
      <stop stop-color="#8B5CF6" />
      <stop offset="1" stop-color="#6D28D9" />
    </radialGradient>
    
    <radialGradient id="paint14_radial" cx="0" cy="0" r="1" gradientUnits="userSpaceOnUse" gradientTransform="translate(650 290) rotate(90) scale(8 16)">
      <stop stop-color="#8B5CF6" />
      <stop offset="1" stop-color="#6D28D9" />
    </radialGradient>
  </defs>
</svg>
