<svg width="800" height="600" viewBox="0 0 800 600" fill="none" xmlns="http://www.w3.org/2000/svg">
  <!-- Background gradient -->
  <rect width="800" height="600" rx="16" fill="url(#paint0_radial)" />
  
  <!-- Browser chrome - removed border by not including stroke attribute -->
  <rect x="50" y="50" width="700" height="500" rx="12" fill="#FFFFFF" filter="drop-shadow(0px 8px 24px rgba(0, 0, 0, 0.15))" />
  
  <!-- Browser toolbar -->
  <rect x="50" y="50" width="700" height="40" rx="12" fill="#F9FAFB" />
  <path d="M80 70a5 5 0 1 1-10 0 5 5 0 0 1 10 0z" fill="#EF4444" />
  <path d="M100 70a5 5 0 1 1-10 0 5 5 0 0 1 10 0z" fill="#F59E0B" />
  <path d="M120 70a5 5 0 1 1-10 0 5 5 0 0 1 10 0z" fill="#10B981" />
  
  <!-- URL bar -->
  <rect x="150" y="60" width="520" height="20" rx="10" fill="#E5E7EB" />
  <rect x="160" y="65" width="16" height="10" rx="2" fill="#6D28D9" />
  
  <!-- Website header -->
  <rect x="50" y="90" width="700" height="80" rx="0" fill="#F5F3FF" />
  
  <!-- Logo -->
  <rect x="90" y="120" width="30" height="30" rx="6" fill="url(#paint1_linear)" />
  <rect x="130" y="120" width="120" height="10" rx="2" fill="#6D28D9" />
  <rect x="130" y="140" width="80" height="8" rx="2" fill="#A78BFA" />
  
  <!-- Navigation -->
  <rect x="400" y="120" width="50" height="10" rx="2" fill="#4B5563" />
  <rect x="470" y="120" width="50" height="10" rx="2" fill="#4B5563" />
  <rect x="540" y="120" width="50" height="10" rx="2" fill="#4B5563" />
  <rect x="610" y="120" width="50" height="10" rx="2" fill="#6D28D9" />
  
  <!-- Hero section -->
  <rect x="50" y="170" width="700" height="200" rx="0" fill="url(#paint2_linear)" />
  
  <!-- Hero content -->
  <rect x="90" y="200" width="320" height="36" rx="4" fill="#1F2937" />
  <rect x="90" y="246" width="260" height="36" rx="4" fill="#374151" />
  <rect x="90" y="292" width="240" height="16" rx="4" fill="#6B7280" />
  <rect x="90" y="318" width="220" height="16" rx="4" fill="#9CA3AF" />
  
  <!-- CTA Buttons -->
  <rect x="90" y="360" width="140" height="40" rx="20" fill="url(#paint3_linear)" />
  <rect x="250" y="360" width="140" height="40" rx="20" fill="url(#paint4_linear)" />
  
  <!-- Hero image -->
  <rect x="450" y="200" width="240" height="140" rx="8" fill="url(#paint5_linear)" />
  <ellipse cx="520" cy="270" rx="40" ry="40" fill="url(#paint6_radial)" opacity="0.6" />
  <ellipse cx="620" cy="240" rx="30" ry="30" fill="url(#paint7_radial)" opacity="0.5" />
  
  <!-- Features section -->
  <rect x="50" y="370" width="700" height="180" rx="0" fill="#FFFFFF" />
  
  <!-- Section heading -->
  <rect x="90" y="400" width="200" height="24" rx="4" fill="#1F2937" />
  <rect x="90" y="434" width="520" height="16" rx="4" fill="#6B7280" />
  
  <!-- Feature cards - removed borders by not including stroke attribute -->
  <rect x="90" y="470" width="200" height="60" rx="8" fill="#F9FAFB" />
  <rect x="100" y="480" width="40" height="40" rx="6" fill="url(#paint8_linear)" opacity="0.8" />
  <rect x="150" y="485" width="120" height="8" rx="2" fill="#1F2937" />
  <rect x="150" y="500" width="100" height="8" rx="2" fill="#9CA3AF" />
  
  <rect x="300" y="470" width="200" height="60" rx="8" fill="#F9FAFB" />
  <rect x="310" y="480" width="40" height="40" rx="6" fill="url(#paint9_linear)" opacity="0.8" />
  <rect x="360" y="485" width="120" height="8" rx="2" fill="#1F2937" />
  <rect x="360" y="500" width="100" height="8" rx="2" fill="#9CA3AF" />
  
  <rect x="510" y="470" width="200" height="60" rx="8" fill="#F9FAFB" />
  <rect x="520" y="480" width="40" height="40" rx="6" fill="url(#paint10_linear)" opacity="0.8" />
  <rect x="570" y="485" width="120" height="8" rx="2" fill="#1F2937" />
  <rect x="570" y="500" width="100" height="8" rx="2" fill="#9CA3AF" />
  
  <!-- Decorative elements -->
  <circle cx="80" cy="240" r="8" fill="url(#paint11_radial)" opacity="0.8"/>
  <rect x="670" y="250" width="30" height="30" rx="8" fill="url(#paint12_radial)" opacity="0.7" transform="rotate(-15 670 250)"/>
  <ellipse cx="120" cy="420" rx="10" ry="16" transform="rotate(45 120 420)" fill="url(#paint13_radial)" opacity="0.6"/>
  <ellipse cx="700" cy="380" rx="16" ry="8" transform="rotate(-30 700 380)" fill="url(#paint14_radial)" opacity="0.5"/>
  
  <!-- Gradients -->
  <defs>
    <radialGradient id="paint0_radial" cx="0" cy="0" r="1" gradientUnits="userSpaceOnUse" gradientTransform="translate(400 300) rotate(90) scale(300 400)">
      <stop stop-color="#F9FAFB" />
      <stop offset="1" stop-color="#F3F4F6" />
    </radialGradient>
    
    <linearGradient id="paint1_linear" x1="90" y1="120" x2="120" y2="150" gradientUnits="userSpaceOnUse">
      <stop stop-color="#8B5CF6" />
      <stop offset="1" stop-color="#6D28D9" />
    </linearGradient>
    
    <linearGradient id="paint2_linear" x1="50" y1="170" x2="750" y2="370" gradientUnits="userSpaceOnUse">
      <stop stop-color="#F5F3FF" />
      <stop offset="1" stop-color="#EDE9FE" />
    </linearGradient>
    
    <linearGradient id="paint3_linear" x1="90" y1="360" x2="230" y2="400" gradientUnits="userSpaceOnUse">
      <stop stop-color="#8B5CF6" />
      <stop offset="1" stop-color="#6D28D9" />
    </linearGradient>
    
    <linearGradient id="paint4_linear" x1="250" y1="360" x2="390" y2="400" gradientUnits="userSpaceOnUse">
      <stop stop-color="#FFFFFF" />
      <stop offset="1" stop-color="#F9FAFB" />
    </linearGradient>
    
    <linearGradient id="paint5_linear" x1="450" y1="200" x2="690" y2="340" gradientUnits="userSpaceOnUse">
      <stop stop-color="#EEF2FF" />
      <stop offset="1" stop-color="#E0E7FF" />
    </linearGradient>
    
    <radialGradient id="paint6_radial" cx="0" cy="0" r="1" gradientUnits="userSpaceOnUse" gradientTransform="translate(520 270) rotate(90) scale(40)">
      <stop stop-color="#8B5CF6" stop-opacity="0.3" />
      <stop offset="1" stop-color="#8B5CF6" stop-opacity="0" />
    </radialGradient>
    
    <radialGradient id="paint7_radial" cx="0" cy="0" r="1" gradientUnits="userSpaceOnUse" gradientTransform="translate(620 240) rotate(90) scale(30)">
      <stop stop-color="#6D28D9" stop-opacity="0.2" />
      <stop offset="1" stop-color="#6D28D9" stop-opacity="0" />
    </radialGradient>
    
    <linearGradient id="paint8_linear" x1="100" y1="480" x2="140" y2="520" gradientUnits="userSpaceOnUse">
      <stop stop-color="#8B5CF6" />
      <stop offset="1" stop-color="#6D28D9" />
    </linearGradient>
    
    <linearGradient id="paint9_linear" x1="310" y1="480" x2="350" y2="520" gradientUnits="userSpaceOnUse">
      <stop stop-color="#8B5CF6" />
      <stop offset="1" stop-color="#6D28D9" />
    </linearGradient>
    
    <linearGradient id="paint10_linear" x1="520" y1="480" x2="560" y2="520" gradientUnits="userSpaceOnUse">
      <stop stop-color="#8B5CF6" />
      <stop offset="1" stop-color="#6D28D9" />
    </linearGradient>
    
    <radialGradient id="paint11_radial" cx="0" cy="0" r="1" gradientUnits="userSpaceOnUse" gradientTransform="translate(80 240) rotate(90) scale(8)">
      <stop stop-color="#8B5CF6" />
      <stop offset="1" stop-color="#6D28D9" />
    </radialGradient>
    
    <radialGradient id="paint12_radial" cx="0" cy="0" r="1" gradientUnits="userSpaceOnUse" gradientTransform="translate(685 265) rotate(90) scale(15)">
      <stop stop-color="#8B5CF6" />
      <stop offset="1" stop-color="#6D28D9" />
    </radialGradient>
    
    <radialGradient id="paint13_radial" cx="0" cy="0" r="1" gradientUnits="userSpaceOnUse" gradientTransform="translate(120 420) rotate(90) scale(16 10)">
      <stop stop-color="#8B5CF6" />
      <stop offset="1" stop-color="#6D28D9" />
    </radialGradient>
    
    <radialGradient id="paint14_radial" cx="0" cy="0" r="1" gradientUnits="userSpaceOnUse" gradientTransform="translate(700 380) rotate(90) scale(8 16)">
      <stop stop-color="#8B5CF6" />
      <stop offset="1" stop-color="#6D28D9" />
    </radialGradient>
  </defs>
</svg>
